<svg preserveAspectRatio="none" overflow="visible" style="display: block;" width="24" height="24" viewBox="0 0 24 24" fill="none" xmlns="http://www.w3.org/2000/svg">
<g id="streamline-flex:user-collaborate-group-solid">
<path id="Vector" fill-rule="evenodd" clip-rule="evenodd" d="M6.30857 6.91029C8.04514 6.91029 9.02057 5.93314 9.02057 4.19829C9.02057 2.46343 8.04343 1.48457 6.30857 1.48457C4.57371 1.48457 3.59486 2.46171 3.59486 4.19829C3.59486 5.93486 4.572 6.91029 6.30857 6.91029ZM18.8571 8.25257C18.8639 8.42141 18.9038 8.58727 18.9747 8.74068C19.0455 8.89408 19.1459 9.03203 19.2701 9.14664C19.3943 9.26126 19.5398 9.35029 19.6983 9.40867C19.8569 9.46704 20.0254 9.49361 20.1943 9.48686C20.3631 9.4801 20.529 9.44016 20.6824 9.36931C20.8358 9.29845 20.9737 9.19808 21.0884 9.07391C21.203 8.94975 21.292 8.80422 21.3504 8.64565C21.4088 8.48708 21.4353 8.31856 21.4286 8.14971C21.406 7.5946 21.378 7.03971 21.3446 6.48514C21.2805 5.37316 20.8101 4.32347 20.0228 3.53555C19.2355 2.74764 18.1862 2.27641 17.0743 2.21143C16.2183 2.16114 15.3686 2.124 14.5251 2.1C14.1841 2.09022 13.8532 2.21631 13.6052 2.45051C13.3572 2.68472 13.2123 3.00786 13.2026 3.34886C13.1928 3.68985 13.3189 4.02076 13.5531 4.26879C13.7873 4.51682 14.1104 4.66165 14.4514 4.67143C15.2686 4.69429 16.092 4.73029 16.9217 4.77943C17.4055 4.80646 17.8623 5.01069 18.2051 5.35313C18.5479 5.69558 18.7525 6.15226 18.78 6.636C18.812 7.17771 18.8383 7.71657 18.8589 8.25257H18.8571ZM9.24857 22.3851C9.58513 22.3888 9.90971 22.2603 10.1526 22.0273C10.3955 21.7943 10.5373 21.4754 10.5477 21.1389C10.558 20.8025 10.436 20.4755 10.2078 20.228C9.97967 19.9805 9.66358 19.8324 9.32743 19.8154C8.556 19.7926 7.77829 19.7577 6.99429 19.7109C6.51024 19.6838 6.05315 19.4793 5.71034 19.1365C5.36754 18.7937 5.16307 18.3366 5.136 17.8526L5.09657 17.1257C5.07606 16.7875 4.9229 16.4711 4.67039 16.2453C4.41788 16.0194 4.08642 15.9023 3.74807 15.9195C3.40971 15.9367 3.09181 16.0867 2.86345 16.3369C2.6351 16.5872 2.51475 16.9175 2.52857 17.256L2.56971 18.0051C2.63425 19.1171 3.10506 20.1666 3.89265 20.9542C4.68025 21.7418 5.72975 22.2126 6.84171 22.2771C7.65086 22.3263 8.45314 22.3623 9.24857 22.3851ZM17.6914 17.7994C19.9251 17.7994 21.4577 19.3594 21.7749 21.5331C21.8434 22.0011 21.4509 22.3869 20.9777 22.3869H14.4034C13.9303 22.3869 13.5377 22.0011 13.6063 21.5331C13.9234 19.3577 15.456 17.7994 17.6914 17.7994ZM10.392 11.7994C10.0766 9.62743 8.544 8.06914 6.30857 8.06914C4.07314 8.06914 2.54057 9.62914 2.22343 11.8029C2.15486 12.2709 2.54743 12.6566 3.02057 12.6566H9.59657C10.0697 12.6566 10.4606 12.2709 10.392 11.8029V11.7994ZM20.4034 13.932C20.4034 15.6686 19.4263 16.6457 17.6897 16.6457C15.9531 16.6457 14.9777 15.6686 14.9777 13.932C14.9777 12.1954 15.9549 11.2183 17.6897 11.2183C19.4246 11.2183 20.4034 12.1954 20.4034 13.932Z" fill="url(#paint0_linear_0_108)"/>
</g>
<defs>
<linearGradient id="paint0_linear_0_108" x1="11.9991" y1="1.48457" x2="11.9991" y2="22.3869" gradientUnits="userSpaceOnUse">
<stop stop-color="#04030D"/>
<stop offset="1" stop-color="#2B2996"/>
</linearGradient>
</defs>
</svg>
